<?xml version="1.0" encoding="UTF-8"?> <svg xmlns="http://www.w3.org/2000/svg" width="129" height="129" viewBox="0 0 129 129" fill="none"> <path d="M64.5 0C28.8669 0 0 28.871 0 64.5C0 100.129 28.871 129 64.5 129C100.133 129 129 100.129 129 64.5C129 28.871 100.129 0 64.5 0ZM96.1799 44.1887L85.5936 94.0743C84.8113 97.6114 82.7056 98.4686 79.7678 96.8041L63.6428 84.9194L55.8653 92.4098C55.0081 93.267 54.2799 93.9952 52.6154 93.9952L53.7597 77.5831L83.6419 50.5846C84.9444 49.4403 83.3548 48.7911 81.6362 49.9355L44.7047 73.1846L28.7878 68.216C25.3298 67.1258 25.2507 64.758 29.516 63.0935L91.7024 39.112C94.5903 38.0716 97.112 39.8152 96.1757 44.1846L96.1799 44.1887Z" fill="#F3F3F3"></path> </svg> 