<?xml version="1.0" encoding="UTF-8"?> <svg xmlns="http://www.w3.org/2000/svg" width="129" height="129" viewBox="0 0 129 129" fill="none"> <path fill-rule="evenodd" clip-rule="evenodd" d="M129 64.5C129 100.122 100.122 129 64.5 129C28.8776 129 0 100.122 0 64.5C0 28.8776 28.8776 0 64.5 0C100.122 0 129 28.8776 129 64.5ZM78.9929 70.1833L78.8591 70.1178C78.144 69.767 74.8276 68.1404 74.1873 67.9097C73.8978 67.8056 73.5877 67.7041 73.2579 67.7041C72.7191 67.7041 72.2665 67.9729 71.914 68.5008C71.5154 69.0939 70.3088 70.5058 69.936 70.9276C69.8873 70.9832 69.8209 71.0498 69.7811 71.0498C69.7454 71.0498 69.1278 70.7952 68.9409 70.7139C64.6607 68.8527 61.4118 64.3769 60.9664 63.6221C60.9027 63.5136 60.8995 63.4643 60.8995 63.4643C60.9152 63.4068 61.0591 63.2624 61.1334 63.1879C61.3507 62.9726 61.5862 62.6889 61.814 62.4144C61.9218 62.2844 62.0299 62.1542 62.136 62.0314C62.4665 61.6465 62.6136 61.3476 62.7842 61.0014L62.8736 60.8216C63.2901 59.9932 62.9344 59.2941 62.8194 59.0683C62.7477 58.9248 61.7574 56.5394 61.2075 55.2148C61.0339 54.7965 60.9042 54.484 60.8612 54.3814C60.4304 53.3494 59.8613 52.869 59.0703 52.869L59.0318 52.8693C59.0083 52.87 58.9848 52.8726 58.7626 52.882C58.3878 52.8978 56.3469 53.1668 55.4446 53.7362C54.4877 54.3401 52.8688 56.2652 52.8688 59.6507C52.8688 62.6978 54.8004 65.5748 55.6297 66.6689C55.6469 66.6919 55.6761 66.7347 55.7172 66.7949L55.7431 66.8329C58.9191 71.4762 62.8784 74.9172 66.8921 76.5223C70.7561 78.0674 72.5859 78.246 73.6261 78.246C74.0632 78.246 74.4133 78.2117 74.722 78.1813L74.9178 78.1626C76.2527 78.0441 79.1861 76.5225 79.8534 74.6662C80.379 73.2042 80.5176 71.6067 80.1679 71.027C79.9283 70.6328 79.5156 70.4345 78.9929 70.1833ZM39.0391 64.8699C39.0391 50.0905 51.1541 38.0666 66.0454 38.0666C80.9354 38.0666 93.0491 50.0905 93.0491 64.8699C93.0491 79.6476 80.9354 91.6703 66.0456 91.6701C61.5798 91.6701 57.1671 90.569 53.2629 88.483L38.9957 93.0167C38.9247 93.0393 38.8519 93.0502 38.7796 93.0502C38.5909 93.0502 38.4061 92.9752 38.2699 92.8362C38.0812 92.6441 38.0169 92.362 38.1033 92.1069L42.7418 78.4244C40.3184 74.3292 39.0391 69.6501 39.0391 64.8699ZM66.0454 86.0869C61.8432 86.0869 57.7732 84.8735 54.2746 82.5778C54.157 82.5005 54.0204 82.4609 53.8829 82.4609C53.8103 82.4609 53.7374 82.4719 53.6666 82.4944L46.5196 84.7663L48.8268 77.9595C48.9014 77.7392 48.8641 77.4963 48.7266 77.3085C46.0624 73.6681 44.6541 69.3671 44.6541 64.8699C44.6541 53.1693 54.2501 43.6499 66.0452 43.6499C77.8388 43.6499 87.4338 53.1693 87.4338 64.8699C87.434 76.5691 77.8392 86.0869 66.0454 86.0869Z" fill="#F3F3F3"></path> </svg> 