<?xml version="1.0" encoding="UTF-8"?> <svg xmlns="http://www.w3.org/2000/svg" width="130" height="130" viewBox="0 0 130 130" fill="none"> <path fill-rule="evenodd" clip-rule="evenodd" d="M125.918 5.84595C116.987 66.9712 62.1418 96.6616 4.8859 103.412C3.90271 103.53 3.19581 104.423 3.31361 105.406C3.43141 106.389 4.32394 107.096 5.30712 106.978C64.167 100.042 120.29 69.2003 129.47 6.36241C129.615 5.38376 128.935 4.47307 127.952 4.32808C126.973 4.1831 126.063 4.86276 125.918 5.84595Z" fill="url(#paint0_linear_77_10)"></path> <path fill-rule="evenodd" clip-rule="evenodd" d="M6.17112 105.069C8.71744 103.207 11.9389 100.905 12.2968 100.633C21.9973 93.2664 30.0349 84.7892 37.1121 74.8441C37.6875 74.0376 37.4971 72.914 36.6906 72.3385C35.8842 71.7631 34.7606 71.9535 34.1852 72.76C27.3255 82.4061 19.5326 90.6295 10.1221 97.7746C9.57386 98.1914 2.32897 103.361 0.942538 104.516C0.371655 104.988 0.195077 105.432 0.163361 105.54C-0.0269333 106.111 0.0863017 106.56 0.240349 106.886C0.417051 107.253 0.856425 107.788 1.70822 108.06C2.60079 108.34 4.58538 108.467 5.08377 108.54C12.6004 109.654 21.0867 110.243 28.8117 112.382C36.1788 114.421 42.8616 117.873 47.1478 124.792C47.6688 125.635 48.7789 125.893 49.6216 125.372C50.4643 124.851 50.7227 123.741 50.2017 122.898C45.4081 115.164 38.0046 111.199 29.7721 108.92C22.0923 106.795 13.6832 106.152 6.17112 105.069Z" fill="url(#paint1_linear_77_10)"></path> <defs> <linearGradient id="paint0_linear_77_10" x1="66.3949" y1="4.30859" x2="66.3949" y2="106.991" gradientUnits="userSpaceOnUse"> <stop offset="0.817708" stop-color="white"></stop> <stop offset="1" stop-color="white" stop-opacity="0"></stop> </linearGradient> <linearGradient id="paint1_linear_77_10" x1="25.2671" y1="72.0059" x2="25.2671" y2="125.641" gradientUnits="userSpaceOnUse"> <stop offset="0.817708" stop-color="white"></stop> <stop offset="1" stop-color="white" stop-opacity="0"></stop> </linearGradient> </defs> </svg> 