<?xml version="1.0" encoding="UTF-8"?> <svg xmlns="http://www.w3.org/2000/svg" width="1288" height="193" viewBox="0 0 1288 193" fill="none"> <g filter="url(#filter0_bd_80_1268)"> <path d="M145.405 144.019C138.569 149.897 130.913 154.409 122.437 157.554C113.96 160.698 105.176 162.271 96.084 162.271C89.1113 162.271 82.3779 161.348 75.8838 159.502C69.458 157.725 63.4082 155.195 57.7344 151.914C52.1289 148.564 47.002 144.565 42.3535 139.917C37.7051 135.269 33.7061 130.142 30.3564 124.536C27.0752 118.862 24.5117 112.812 22.666 106.387C20.8887 99.8926 20 93.1592 20 86.1865C20 79.2139 20.8887 72.4805 22.666 65.9863C24.5117 59.4922 27.0752 53.4424 30.3564 47.8369C33.7061 42.1631 37.7051 37.002 42.3535 32.3535C47.002 27.7051 52.1289 23.7402 57.7344 20.459C63.4082 17.1094 69.458 14.5459 75.8838 12.7686C82.3779 10.9229 89.1113 10 96.084 10C105.176 10 113.96 11.5723 122.437 14.7168C130.913 17.793 138.569 22.3047 145.405 28.252L129.819 53.8867C125.513 49.2383 120.42 45.6836 114.541 43.2227C108.662 40.6934 102.51 39.4287 96.084 39.4287C89.5898 39.4287 83.5059 40.6592 77.832 43.1201C72.1582 45.5811 67.2021 48.9307 62.9639 53.1689C58.7256 57.3389 55.376 62.2949 52.915 68.0371C50.4541 73.7109 49.2236 79.7607 49.2236 86.1865C49.2236 92.6123 50.4541 98.6621 52.915 104.336C55.376 109.941 58.7256 114.863 62.9639 119.102C67.2021 123.34 72.1582 126.689 77.832 129.15C83.5059 131.611 89.5898 132.842 96.084 132.842C102.51 132.842 108.662 131.611 114.541 129.15C120.42 126.621 125.513 123.032 129.819 118.384L145.405 144.019Z" fill="#F3F3F3"></path> <path d="M278.501 100.337C278.501 108.472 276.963 116.128 273.887 123.306C270.811 130.415 266.606 136.636 261.274 141.968C255.942 147.231 249.688 151.401 242.51 154.478C235.4 157.554 227.778 159.092 219.644 159.092C211.509 159.092 203.853 157.554 196.675 154.478C189.565 151.401 183.345 147.231 178.013 141.968C172.749 136.636 168.579 130.415 165.503 123.306C162.427 116.128 160.889 108.472 160.889 100.337V12.0508H190.215V100.337C190.215 104.37 190.967 108.164 192.471 111.719C194.043 115.273 196.162 118.384 198.828 121.05C201.494 123.716 204.604 125.835 208.159 127.407C211.782 128.911 215.61 129.663 219.644 129.663C223.677 129.663 227.471 128.911 231.025 127.407C234.648 125.835 237.793 123.716 240.459 121.05C243.125 118.384 245.21 115.273 246.714 111.719C248.286 108.164 249.072 104.37 249.072 100.337V12.0508H278.501V100.337Z" fill="#F3F3F3"></path> <path d="M333.462 41.4795V100.337H362.891C366.924 100.337 370.718 99.585 374.272 98.0811C377.827 96.5088 380.938 94.3896 383.604 91.7236C386.27 89.0576 388.354 85.9473 389.858 82.3926C391.431 78.7695 392.217 74.9414 392.217 70.9082C392.217 66.875 391.431 63.0811 389.858 59.5264C388.354 55.9033 386.27 52.7588 383.604 50.0928C380.938 47.4268 377.827 45.3418 374.272 43.8379C370.718 42.2656 366.924 41.4795 362.891 41.4795H333.462ZM333.462 159.092H304.033V12.0508H362.891C368.291 12.0508 373.486 12.7686 378.477 14.2041C383.467 15.5713 388.115 17.5537 392.422 20.1514C396.797 22.6807 400.762 25.7568 404.316 29.3799C407.939 32.9346 411.016 36.8994 413.545 41.2744C416.143 45.6494 418.125 50.332 419.492 55.3223C420.928 60.3125 421.646 65.5078 421.646 70.9082C421.646 75.9668 420.996 80.8887 419.697 85.6738C418.467 90.459 416.655 95.0049 414.263 99.3115C411.938 103.618 409.067 107.583 405.649 111.206C402.231 114.829 398.403 117.974 394.165 120.64L410.469 159.092H379.194L366.377 129.458L333.462 129.663V159.092Z" fill="#F3F3F3"></path> <path d="M527.568 100.337V70.9082C527.568 66.875 526.782 63.0811 525.21 59.5264C523.706 55.9033 521.621 52.7588 518.955 50.0928C516.289 47.4268 513.145 45.3418 509.521 43.8379C505.967 42.2656 502.173 41.4795 498.14 41.4795C494.106 41.4795 490.278 42.2656 486.655 43.8379C483.101 45.3418 479.99 47.4268 477.324 50.0928C474.658 52.7588 472.539 55.9033 470.967 59.5264C469.463 63.0811 468.711 66.875 468.711 70.9082V100.337H527.568ZM556.997 159.092H527.568V129.663H468.711V159.092H439.385V70.9082C439.385 62.7734 440.923 55.1514 443.999 48.042C447.075 40.8643 451.245 34.6094 456.509 29.2773C461.841 23.9453 468.062 19.7412 475.171 16.665C482.349 13.5889 490.005 12.0508 498.14 12.0508C506.274 12.0508 513.896 13.5889 521.006 16.665C528.184 19.7412 534.438 23.9453 539.771 29.2773C545.103 34.6094 549.307 40.8643 552.383 48.042C555.459 55.1514 556.997 62.7734 556.997 70.9082V159.092Z" fill="#F3F3F3"></path> <path d="M700.142 159.092H668.662L611.958 62.2949V159.092H582.529V12.0508H614.009L670.713 108.95V12.0508H700.142V159.092Z" fill="#F3F3F3"></path> <path d="M845.337 85.5713C845.337 92.3389 844.448 98.8672 842.671 105.156C840.962 111.377 838.501 117.222 835.288 122.69C832.075 128.091 828.247 133.047 823.804 137.559C819.36 142.002 814.404 145.83 808.936 149.043C803.467 152.256 797.588 154.751 791.299 156.528C785.078 158.237 778.584 159.092 771.816 159.092H727.52V12.0508H771.816C778.584 12.0508 785.078 12.9395 791.299 14.7168C797.588 16.4258 803.467 18.8867 808.936 22.0996C814.404 25.3125 819.36 29.1748 823.804 33.6865C828.247 38.1299 832.075 43.0859 835.288 48.5547C838.501 53.9551 840.962 59.7998 842.671 66.0889C844.448 72.3096 845.337 78.8037 845.337 85.5713ZM815.908 85.5713C815.908 79.4873 814.746 73.7793 812.422 68.4473C810.166 63.1152 807.021 58.4668 802.988 54.502C799.023 50.4688 794.341 47.29 788.94 44.9658C783.608 42.6416 777.9 41.4795 771.816 41.4795H757.153V129.663H771.816C777.9 129.663 783.608 128.535 788.94 126.279C794.341 123.955 799.023 120.811 802.988 116.846C807.021 112.812 810.166 108.13 812.422 102.798C814.746 97.3975 815.908 91.6553 815.908 85.5713Z" fill="#F3F3F3"></path> <path d="M965.718 159.092H864.922V12.0508H965.718V41.4795H894.351V70.9082H942.646V100.337H894.351V129.663H965.718V159.092Z" fill="#F3F3F3"></path> <path d="M1015.76 41.4795V100.337H1045.19C1049.22 100.337 1053.01 99.585 1056.57 98.0811C1060.12 96.5088 1063.23 94.3896 1065.9 91.7236C1068.56 89.0576 1070.65 85.9473 1072.15 82.3926C1073.73 78.7695 1074.51 74.9414 1074.51 70.9082C1074.51 66.875 1073.73 63.0811 1072.15 59.5264C1070.65 55.9033 1068.56 52.7588 1065.9 50.0928C1063.23 47.4268 1060.12 45.3418 1056.57 43.8379C1053.01 42.2656 1049.22 41.4795 1045.19 41.4795H1015.76ZM1015.76 159.092H986.328V12.0508H1045.19C1050.59 12.0508 1055.78 12.7686 1060.77 14.2041C1065.76 15.5713 1070.41 17.5537 1074.72 20.1514C1079.09 22.6807 1083.06 25.7568 1086.61 29.3799C1090.23 32.9346 1093.31 36.8994 1095.84 41.2744C1098.44 45.6494 1100.42 50.332 1101.79 55.3223C1103.22 60.3125 1103.94 65.5078 1103.94 70.9082C1103.94 75.9668 1103.29 80.8887 1101.99 85.6738C1100.76 90.459 1098.95 95.0049 1096.56 99.3115C1094.23 103.618 1091.36 107.583 1087.94 111.206C1084.53 114.829 1080.7 117.974 1076.46 120.64L1092.76 159.092H1061.49L1048.67 129.458L1015.76 129.663V159.092Z" fill="#F3F3F3"></path> <path d="M1267.39 86.1865C1267.39 93.1592 1266.46 99.8926 1264.62 106.387C1262.84 112.812 1260.31 118.862 1257.03 124.536C1253.75 130.142 1249.79 135.269 1245.14 139.917C1240.49 144.565 1235.36 148.564 1229.76 151.914C1224.15 155.195 1218.1 157.725 1211.61 159.502C1205.11 161.348 1198.38 162.271 1191.41 162.271C1184.43 162.271 1177.7 161.348 1171.21 159.502C1164.78 157.725 1158.73 155.195 1153.06 151.914C1147.45 148.564 1142.32 144.565 1137.68 139.917C1133.03 135.269 1129.03 130.142 1125.68 124.536C1122.4 118.862 1119.83 112.812 1117.99 106.387C1116.21 99.8926 1115.32 93.1592 1115.32 86.1865C1115.32 79.2139 1116.21 72.4805 1117.99 65.9863C1119.83 59.4922 1122.4 53.4424 1125.68 47.8369C1129.03 42.2314 1133.03 37.1045 1137.68 32.4561C1142.32 27.8076 1147.45 23.8428 1153.06 20.5615C1158.73 17.2803 1164.78 14.751 1171.21 12.9736C1177.7 11.1279 1184.43 10.2051 1191.41 10.2051C1198.38 10.2051 1205.11 11.1279 1211.61 12.9736C1218.1 14.751 1224.15 17.2803 1229.76 20.5615C1235.36 23.8428 1240.49 27.8076 1245.14 32.4561C1249.79 37.1045 1253.75 42.2314 1257.03 47.8369C1260.31 53.4424 1262.84 59.4922 1264.62 65.9863C1266.46 72.4805 1267.39 79.2139 1267.39 86.1865ZM1238.16 86.1865C1238.16 79.7607 1236.93 73.7109 1234.47 68.0371C1232.01 62.2949 1228.66 57.3389 1224.42 53.1689C1220.25 48.9307 1215.3 45.5811 1209.56 43.1201C1203.88 40.6592 1197.83 39.4287 1191.41 39.4287C1184.91 39.4287 1178.83 40.6592 1173.15 43.1201C1167.48 45.5811 1162.52 48.9307 1158.29 53.1689C1154.05 57.3389 1150.7 62.2949 1148.24 68.0371C1145.78 73.7109 1144.55 79.7607 1144.55 86.1865C1144.55 92.6123 1145.78 98.6621 1148.24 104.336C1150.7 109.941 1154.05 114.863 1158.29 119.102C1162.52 123.34 1167.48 126.689 1173.15 129.15C1178.83 131.611 1184.91 132.842 1191.41 132.842C1197.83 132.842 1203.88 131.611 1209.56 129.15C1215.3 126.689 1220.25 123.34 1224.42 119.102C1228.66 114.863 1232.01 109.941 1234.47 104.336C1236.93 98.6621 1238.16 92.6123 1238.16 86.1865Z" fill="#F3F3F3"></path> </g> <defs> <filter id="filter0_bd_80_1268" x="-20" y="-30" width="1327.39" height="232.271" filterUnits="userSpaceOnUse" color-interpolation-filters="sRGB"> <feFlood flood-opacity="0" result="BackgroundImageFix"></feFlood> <feGaussianBlur in="BackgroundImage" stdDeviation="20"></feGaussianBlur> <feComposite in2="SourceAlpha" operator="in" result="effect1_backgroundBlur_80_1268"></feComposite> <feColorMatrix in="SourceAlpha" type="matrix" values="0 0 0 0 0 0 0 0 0 0 0 0 0 0 0 0 0 0 127 0" result="hardAlpha"></feColorMatrix> <feOffset dy="10"></feOffset> <feGaussianBlur stdDeviation="10"></feGaussianBlur> <feComposite in2="hardAlpha" operator="out"></feComposite> <feColorMatrix type="matrix" values="0 0 0 0 0.0666667 0 0 0 0 0.0666667 0 0 0 0 0.0666667 0 0 0 0.28 0"></feColorMatrix> <feBlend mode="normal" in2="effect1_backgroundBlur_80_1268" result="effect2_dropShadow_80_1268"></feBlend> <feBlend mode="normal" in="SourceGraphic" in2="effect2_dropShadow_80_1268" result="shape"></feBlend> </filter> </defs> </svg> 