<?xml version="1.0" encoding="UTF-8"?> <svg xmlns="http://www.w3.org/2000/svg" width="80" height="80" viewBox="0 0 80 80" fill="none"> <path d="M79.5 40C79.5 61.8153 61.8153 79.5 40 79.5C18.1848 79.5 0.5 61.8153 0.5 40C0.5 18.1848 18.1848 0.5 40 0.5C61.8153 0.5 79.5 18.1848 79.5 40Z" fill="#45434D" stroke="#45434D"></path> <path d="M54.8985 24.0752L16.5188 37.6003C15.9015 37.8176 15.7645 38.3502 16.4971 38.6415L24.7486 41.9477L29.6396 43.9063L53.516 26.3728C53.8377 26.1381 54.2072 26.5794 53.9747 26.8315L36.8651 45.3366V45.341L35.8826 46.4344L37.1846 47.1343L48.0142 52.9643C48.6468 53.3034 49.4663 53.023 49.6489 52.2383L55.9658 25.0121C56.1375 24.2665 55.6441 23.8122 54.8985 24.0752ZM29.5961 55.6554C29.5961 56.1901 29.8982 56.3401 30.3156 55.9619C30.8612 55.4641 36.5108 50.3949 36.5108 50.3949L29.5961 46.8213V55.6554Z" fill="white"></path> </svg> 