<?xml version="1.0" encoding="UTF-8"?> <svg xmlns="http://www.w3.org/2000/svg" width="332" height="131" viewBox="0 0 332 131" fill="none"> <g filter="url(#filter0_di_81_1285)"> <path d="M30 61.5C30 41.8939 45.8939 26 65.5 26H166H234H266.5C286.106 26 302 41.8939 302 61.5V61.5C302 81.1061 286.106 97 266.5 97H166H65.5C45.8939 97 30 81.1061 30 61.5V61.5Z" fill="url(#paint0_linear_81_1285)"></path> </g> <path d="M121.7 54H127.62C129.113 54 130.287 54.3 131.14 54.9C131.993 55.5 132.42 56.38 132.42 57.54C132.42 58.34 132.213 59.0067 131.8 59.54C131.387 60.06 130.86 60.42 130.22 60.62C130.98 60.8333 131.627 61.2267 132.16 61.8C132.707 62.36 132.98 63.1333 132.98 64.12C132.98 64.8667 132.813 65.5133 132.48 66.06C132.147 66.5933 131.7 66.9933 131.14 67.26C130.58 67.5267 130.013 67.72 129.44 67.84C128.88 67.9467 128.287 68 127.66 68H121.7V54ZM130.66 63.88C130.66 62.4533 129.693 61.74 127.76 61.74H123.98V66H127.44C127.907 66 128.3 65.98 128.62 65.94C128.94 65.9 129.267 65.8133 129.6 65.68C129.947 65.5467 130.207 65.3333 130.38 65.04C130.567 64.7333 130.66 64.3467 130.66 63.88ZM130.1 57.9C130.1 56.62 129.193 55.98 127.38 55.98H123.98V59.8L127.7 59.82C128.407 59.82 128.98 59.66 129.42 59.34C129.873 59.02 130.1 58.54 130.1 57.9ZM142.035 68H139.895V58.4H142.035V62.2H143.615L146.375 58.4H148.815L145.335 63.16L149.195 68H146.735L143.575 64.02H142.035V68ZM158.68 65.78C158.68 66.2467 158.913 66.48 159.38 66.48C159.54 66.48 159.753 66.44 160.02 66.36V67.9C159.62 68.06 159.167 68.14 158.66 68.14C157.7 68.14 157.06 67.7667 156.74 67.02C155.713 67.8467 154.507 68.26 153.12 68.26C152.187 68.26 151.393 68.0067 150.74 67.5C150.087 66.98 149.76 66.2533 149.76 65.32C149.76 64.2 150.18 63.3867 151.02 62.88C151.86 62.36 152.867 62.1 154.04 62.1C154.813 62.1 155.647 62.1933 156.54 62.38V62.04C156.54 61.4267 156.32 60.9333 155.88 60.56C155.44 60.1867 154.82 60 154.02 60C152.833 60 151.68 60.2467 150.56 60.74V58.78C151.813 58.3533 153.04 58.14 154.24 58.14C155.64 58.14 156.727 58.4867 157.5 59.18C158.287 59.8733 158.68 60.9267 158.68 62.34V65.78ZM154.46 63.6C153.753 63.6 153.16 63.7267 152.68 63.98C152.2 64.2333 151.96 64.6333 151.96 65.18C151.96 65.6333 152.133 65.9867 152.48 66.24C152.827 66.48 153.253 66.6 153.76 66.6C154.853 66.6 155.78 66.22 156.54 65.46V63.84C155.767 63.68 155.073 63.6 154.46 63.6ZM165.702 68H163.562V60.28H160.242V58.4H169.002V60.28H165.702V68ZM178.739 65.78C178.739 66.2467 178.972 66.48 179.439 66.48C179.599 66.48 179.812 66.44 180.079 66.36V67.9C179.679 68.06 179.225 68.14 178.719 68.14C177.759 68.14 177.119 67.7667 176.799 67.02C175.772 67.8467 174.565 68.26 173.179 68.26C172.245 68.26 171.452 68.0067 170.799 67.5C170.145 66.98 169.819 66.2533 169.819 65.32C169.819 64.2 170.239 63.3867 171.079 62.88C171.919 62.36 172.925 62.1 174.099 62.1C174.872 62.1 175.705 62.1933 176.599 62.38V62.04C176.599 61.4267 176.379 60.9333 175.939 60.56C175.499 60.1867 174.879 60 174.079 60C172.892 60 171.739 60.2467 170.619 60.74V58.78C171.872 58.3533 173.099 58.14 174.299 58.14C175.699 58.14 176.785 58.4867 177.559 59.18C178.345 59.8733 178.739 60.9267 178.739 62.34V65.78ZM174.519 63.6C173.812 63.6 173.219 63.7267 172.739 63.98C172.259 64.2333 172.019 64.6333 172.019 65.18C172.019 65.6333 172.192 65.9867 172.539 66.24C172.885 66.48 173.312 66.6 173.819 66.6C174.912 66.6 175.839 66.22 176.599 65.46V63.84C175.825 63.68 175.132 63.6 174.519 63.6ZM185.512 60.22C185.432 61.4733 185.325 62.5467 185.192 63.44C185.058 64.3333 184.858 65.16 184.592 65.92C184.325 66.6667 183.972 67.2333 183.532 67.62C183.105 67.9933 182.578 68.18 181.952 68.18C181.538 68.18 181.098 68.0933 180.632 67.92V66.24C180.858 66.32 181.065 66.36 181.252 66.36C182.012 66.36 182.545 65.7 182.852 64.38C183.172 63.0467 183.385 61.0533 183.492 58.4H190.892V68H188.752V60.22H185.512ZM194.487 66.92C193.473 66.0267 192.967 64.7867 192.967 63.2C192.967 61.6133 193.473 60.3733 194.487 59.48C195.513 58.5867 196.74 58.14 198.167 58.14C199.607 58.14 200.833 58.5867 201.847 59.48C202.86 60.3733 203.367 61.6133 203.367 63.2C203.367 64.7867 202.86 66.0267 201.847 66.92C200.833 67.8133 199.607 68.26 198.167 68.26C196.74 68.26 195.513 67.8133 194.487 66.92ZM200.347 65.46C200.907 64.8867 201.187 64.1333 201.187 63.2C201.187 62.2667 200.907 61.52 200.347 60.96C199.787 60.3867 199.06 60.1 198.167 60.1C197.26 60.1 196.527 60.3867 195.967 60.96C195.407 61.52 195.127 62.2667 195.127 63.2C195.127 64.1333 195.407 64.8867 195.967 65.46C196.527 66.02 197.26 66.3 198.167 66.3C199.06 66.3 199.787 66.02 200.347 65.46ZM207.582 68H205.442V58.4H212.602V60.28H207.582V68Z" fill="#616066"></path> <defs> <filter id="filter0_di_81_1285" x="0" y="0" width="332" height="131" filterUnits="userSpaceOnUse" color-interpolation-filters="sRGB"> <feFlood flood-opacity="0" result="BackgroundImageFix"></feFlood> <feColorMatrix in="SourceAlpha" type="matrix" values="0 0 0 0 0 0 0 0 0 0 0 0 0 0 0 0 0 0 127 0" result="hardAlpha"></feColorMatrix> <feOffset dy="4"></feOffset> <feGaussianBlur stdDeviation="15"></feGaussianBlur> <feComposite in2="hardAlpha" operator="out"></feComposite> <feColorMatrix type="matrix" values="0 0 0 0 1 0 0 0 0 1 0 0 0 0 1 0 0 0 0.96 0"></feColorMatrix> <feBlend mode="normal" in2="BackgroundImageFix" result="effect1_dropShadow_81_1285"></feBlend> <feBlend mode="normal" in="SourceGraphic" in2="effect1_dropShadow_81_1285" result="shape"></feBlend> <feColorMatrix in="SourceAlpha" type="matrix" values="0 0 0 0 0 0 0 0 0 0 0 0 0 0 0 0 0 0 127 0" result="hardAlpha"></feColorMatrix> <feOffset dx="2" dy="2"></feOffset> <feGaussianBlur stdDeviation="10"></feGaussianBlur> <feComposite in2="hardAlpha" operator="arithmetic" k2="-1" k3="1"></feComposite> <feColorMatrix type="matrix" values="0 0 0 0 1 0 0 0 0 1 0 0 0 0 1 0 0 0 1 0"></feColorMatrix> <feBlend mode="normal" in2="shape" result="effect2_innerShadow_81_1285"></feBlend> </filter> <linearGradient id="paint0_linear_81_1285" x1="30" y1="62" x2="302" y2="62" gradientUnits="userSpaceOnUse"> <stop stop-color="#DDDDDD"></stop> <stop offset="0.531088" stop-color="white"></stop> <stop offset="1" stop-color="#E8E8E8"></stop> </linearGradient> </defs> </svg> 