<?xml version="1.0" encoding="UTF-8"?> <svg xmlns="http://www.w3.org/2000/svg" width="100" height="100" viewBox="0 0 100 100" fill="none"> <ellipse cx="50.5" cy="52.5" rx="34.5" ry="36.5" fill="black"></ellipse> <path d="M50 0C22.3843 0 0 22.3843 0 50C0 77.6157 22.3843 100 50 100C77.6124 100 100 77.6124 100 50C100 22.3876 77.6157 0 50 0ZM67.6781 63.2593C68.9 64.4812 68.9 66.4593 67.6781 67.6781C66.456 68.9 64.4781 68.9 63.2593 67.6781L50.0188 54.4374L36.6874 67.7688C35.4562 68.9969 33.4624 68.9969 32.2343 67.7688C31.0031 66.5376 31.0031 64.5438 32.2343 63.3155L45.5655 49.9843L32.3248 36.7436C31.1029 35.5217 31.1029 33.5436 32.3248 32.325C33.5467 31.1031 35.5248 31.1031 36.7435 32.325L49.9842 45.5657L63.4124 32.1376C64.6436 30.9064 66.6373 30.9064 67.8655 32.1376C69.0967 33.3688 69.0967 35.3626 67.8655 36.5907L54.4373 50.019L67.6781 63.2593Z" fill="#45434D"></path> </svg> 