<?xml version="1.0" encoding="UTF-8"?> <svg xmlns="http://www.w3.org/2000/svg" width="444" height="155" viewBox="0 0 444 155" fill="none"> <g filter="url(#filter0_di_77_88)"> <path d="M30 66.5C30 44.1325 48.1325 26 70.5 26L221.96 26L317.939 26H373.419C395.787 26 413.919 44.1325 413.919 66.5V79.5618C413.919 101.929 395.787 120.062 373.419 120.062L221.96 120.062H70.5C48.1325 120.062 30 101.929 30 79.5618V66.5Z" fill="#45434D"></path> </g> <path d="M112.25 80.4868H109.286V62.2868H124.574V80.4868H121.61V65.0168H112.25V80.4868ZM127.437 74.2468C127.437 73.1721 127.627 72.2015 128.009 71.3348C128.39 70.4508 128.893 69.7575 129.517 69.2548C130.141 68.7348 130.817 68.3448 131.545 68.0848C132.273 67.8075 133.009 67.6688 133.755 67.6688C134.708 67.6688 135.566 67.8161 136.329 68.1108C137.109 68.4055 137.733 68.8041 138.201 69.3068C138.669 69.8095 139.05 70.3901 139.345 71.0488C139.639 71.7075 139.795 72.4008 139.813 73.1288C139.83 73.8395 139.769 74.5588 139.631 75.2868H130.245C130.383 76.3441 130.903 77.1415 131.805 77.6788C132.706 78.1988 133.781 78.4588 135.029 78.4588C136.45 78.4588 137.767 78.1641 138.981 77.5748V79.9668C137.785 80.5388 136.294 80.8248 134.509 80.8248C132.481 80.8248 130.791 80.2528 129.439 79.1088C128.104 77.9648 127.437 76.3441 127.437 74.2468ZM137.135 73.2068C137.239 72.4961 137.022 71.7855 136.485 71.0748C135.965 70.3468 135.098 69.9828 133.885 69.9828C132.897 69.9828 132.047 70.2688 131.337 70.8408C130.643 71.4128 130.271 72.2015 130.219 73.2068H137.135ZM144.88 69.9568C146.145 68.4315 147.749 67.6688 149.69 67.6688C151.527 67.6688 153.018 68.3101 154.162 69.5928C155.306 70.8581 155.878 72.4095 155.878 74.2468C155.878 76.0841 155.306 77.6441 154.162 78.9268C153.018 80.1921 151.527 80.8248 149.69 80.8248C147.818 80.8248 146.319 80.1748 145.192 78.8748V86.2068H142.41V68.0068H144.88V69.9568ZM151.952 77.2368C152.68 76.4568 153.044 75.4601 153.044 74.2468C153.044 73.0335 152.68 72.0455 151.952 71.2828C151.224 70.5028 150.297 70.1128 149.17 70.1128C148.251 70.1128 147.437 70.3641 146.726 70.8668C146.033 71.3695 145.521 71.9848 145.192 72.7128V75.7548C145.521 76.5001 146.033 77.1241 146.726 77.6268C147.437 78.1295 148.251 78.3808 149.17 78.3808C150.297 78.3808 151.224 77.9995 151.952 77.2368ZM157.804 74.2468C157.804 73.1721 157.994 72.2015 158.376 71.3348C158.757 70.4508 159.26 69.7575 159.884 69.2548C160.508 68.7348 161.184 68.3448 161.912 68.0848C162.64 67.8075 163.376 67.6688 164.122 67.6688C165.075 67.6688 165.933 67.8161 166.696 68.1108C167.476 68.4055 168.1 68.8041 168.568 69.3068C169.036 69.8095 169.417 70.3901 169.712 71.0488C170.006 71.7075 170.162 72.4008 170.18 73.1288C170.197 73.8395 170.136 74.5588 169.998 75.2868H160.612C160.75 76.3441 161.27 77.1415 162.172 77.6788C163.073 78.1988 164.148 78.4588 165.396 78.4588C166.817 78.4588 168.134 78.1641 169.348 77.5748V79.9668C168.152 80.5388 166.661 80.8248 164.876 80.8248C162.848 80.8248 161.158 80.2528 159.806 79.1088C158.471 77.9648 157.804 76.3441 157.804 74.2468ZM167.502 73.2068C167.606 72.4961 167.389 71.7855 166.852 71.0748C166.332 70.3468 165.465 69.9828 164.252 69.9828C163.264 69.9828 162.414 70.2688 161.704 70.8408C161.01 71.4128 160.638 72.2015 160.586 73.2068H167.502ZM182.501 65.1988C181.461 65.9095 180.196 66.2648 178.705 66.2648C177.214 66.2648 175.949 65.9095 174.909 65.1988V62.9368C176.07 63.6648 177.336 64.0288 178.705 64.0288C180.074 64.0288 181.34 63.6648 182.501 62.9368V65.1988ZM175.169 80.4868H172.777V68.0068H175.559V76.1708L182.241 68.0068H184.633V80.4868H181.851V72.3228L175.169 80.4868ZM193.911 80.4868H191.129V70.4508H186.813V68.0068H198.201V70.4508H193.911V80.4868ZM202.769 80.4868H200.377V68.0068H203.159V76.1708L209.841 68.0068H212.233V80.4868H209.451V72.3228L202.769 80.4868ZM229.189 80.4868H221.857V68.0068H228.981C230.212 68.0068 231.174 68.3188 231.867 68.9428C232.578 69.5495 232.933 70.3468 232.933 71.3348C232.933 72.7041 232.344 73.6488 231.165 74.1688C231.789 74.3595 232.301 74.7061 232.699 75.2088C233.098 75.7115 233.297 76.3268 233.297 77.0548C233.297 78.0775 232.951 78.9095 232.257 79.5508C231.581 80.1748 230.559 80.4868 229.189 80.4868ZM224.639 75.1828V78.3808H228.513C229.831 78.3808 230.489 77.8521 230.489 76.7948C230.489 75.7201 229.848 75.1828 228.565 75.1828H224.639ZM224.639 70.1128V73.2068H228.357C229.536 73.2068 230.125 72.7041 230.125 71.6988C230.125 71.1441 229.952 70.7455 229.605 70.5028C229.276 70.2428 228.86 70.1128 228.357 70.1128H224.639ZM245.028 80.4868H242.246V68.0068H245.028V72.9468H247.082L250.67 68.0068H253.842L249.318 74.1948L254.336 80.4868H251.138L247.03 75.3128H245.028V80.4868ZM266.667 77.6008C266.667 78.2075 266.97 78.5108 267.577 78.5108C267.785 78.5108 268.062 78.4588 268.409 78.3548V80.3568C267.889 80.5648 267.3 80.6688 266.641 80.6688C265.393 80.6688 264.561 80.1835 264.145 79.2128C262.81 80.2875 261.242 80.8248 259.439 80.8248C258.226 80.8248 257.194 80.4955 256.345 79.8368C255.496 79.1608 255.071 78.2161 255.071 77.0028C255.071 75.5468 255.617 74.4895 256.709 73.8308C257.801 73.1548 259.11 72.8168 260.635 72.8168C261.64 72.8168 262.724 72.9381 263.885 73.1808V72.7388C263.885 71.9415 263.599 71.3001 263.027 70.8148C262.455 70.3295 261.649 70.0868 260.609 70.0868C259.066 70.0868 257.567 70.4075 256.111 71.0488V68.5008C257.74 67.9461 259.335 67.6688 260.895 67.6688C262.715 67.6688 264.128 68.1195 265.133 69.0208C266.156 69.9221 266.667 71.2915 266.667 73.1288V77.6008ZM261.181 74.7668C260.262 74.7668 259.491 74.9315 258.867 75.2608C258.243 75.5901 257.931 76.1101 257.931 76.8208C257.931 77.4101 258.156 77.8695 258.607 78.1988C259.058 78.5108 259.612 78.6668 260.271 78.6668C261.692 78.6668 262.897 78.1728 263.885 77.1848V75.0788C262.88 74.8708 261.978 74.7668 261.181 74.7668ZM275.796 80.4868H273.014V70.4508H268.698V68.0068H280.086V70.4508H275.796V80.4868ZM292.743 77.6008C292.743 78.2075 293.047 78.5108 293.653 78.5108C293.861 78.5108 294.139 78.4588 294.485 78.3548V80.3568C293.965 80.5648 293.376 80.6688 292.717 80.6688C291.469 80.6688 290.637 80.1835 290.221 79.2128C288.887 80.2875 287.318 80.8248 285.515 80.8248C284.302 80.8248 283.271 80.4955 282.421 79.8368C281.572 79.1608 281.147 78.2161 281.147 77.0028C281.147 75.5468 281.693 74.4895 282.785 73.8308C283.877 73.1548 285.186 72.8168 286.711 72.8168C287.717 72.8168 288.8 72.9381 289.961 73.1808V72.7388C289.961 71.9415 289.675 71.3001 289.103 70.8148C288.531 70.3295 287.725 70.0868 286.685 70.0868C285.143 70.0868 283.643 70.4075 282.187 71.0488V68.5008C283.817 67.9461 285.411 67.6688 286.971 67.6688C288.791 67.6688 290.204 68.1195 291.209 69.0208C292.232 69.9221 292.743 71.2915 292.743 73.1288V77.6008ZM287.257 74.7668C286.339 74.7668 285.567 74.9315 284.943 75.2608C284.319 75.5901 284.007 76.1101 284.007 76.8208C284.007 77.4101 284.233 77.8695 284.683 78.1988C285.134 78.5108 285.689 78.6668 286.347 78.6668C287.769 78.6668 288.973 78.1728 289.961 77.1848V75.0788C288.956 74.8708 288.055 74.7668 287.257 74.7668ZM301.548 70.3728C301.444 72.0021 301.305 73.3975 301.132 74.5588C300.959 75.7201 300.699 76.7948 300.352 77.7828C300.005 78.7535 299.546 79.4901 298.974 79.9928C298.419 80.4781 297.735 80.7208 296.92 80.7208C296.383 80.7208 295.811 80.6081 295.204 80.3828V78.1988C295.499 78.3028 295.767 78.3548 296.01 78.3548C296.998 78.3548 297.691 77.4968 298.09 75.7808C298.506 74.0475 298.783 71.4561 298.922 68.0068H308.542V80.4868H305.76V70.3728H301.548ZM313.215 79.0828C311.898 77.9215 311.239 76.3095 311.239 74.2468C311.239 72.1841 311.898 70.5721 313.215 69.4108C314.55 68.2495 316.145 67.6688 317.999 67.6688C319.871 67.6688 321.466 68.2495 322.783 69.4108C324.101 70.5721 324.759 72.1841 324.759 74.2468C324.759 76.3095 324.101 77.9215 322.783 79.0828C321.466 80.2441 319.871 80.8248 317.999 80.8248C316.145 80.8248 314.55 80.2441 313.215 79.0828ZM320.833 77.1848C321.561 76.4395 321.925 75.4601 321.925 74.2468C321.925 73.0335 321.561 72.0628 320.833 71.3348C320.105 70.5895 319.161 70.2168 317.999 70.2168C316.821 70.2168 315.867 70.5895 315.139 71.3348C314.411 72.0628 314.047 73.0335 314.047 74.2468C314.047 75.4601 314.411 76.4395 315.139 77.1848C315.867 77.9128 316.821 78.2768 317.999 78.2768C319.161 78.2768 320.105 77.9128 320.833 77.1848ZM330.239 80.4868H327.457V68.0068H336.765V70.4508H330.239V80.4868Z" fill="white"></path> <defs> <filter id="filter0_di_77_88" x="0" y="0" width="443.919" height="154.062" filterUnits="userSpaceOnUse" color-interpolation-filters="sRGB"> <feFlood flood-opacity="0" result="BackgroundImageFix"></feFlood> <feColorMatrix in="SourceAlpha" type="matrix" values="0 0 0 0 0 0 0 0 0 0 0 0 0 0 0 0 0 0 127 0" result="hardAlpha"></feColorMatrix> <feOffset dy="4"></feOffset> <feGaussianBlur stdDeviation="15"></feGaussianBlur> <feComposite in2="hardAlpha" operator="out"></feComposite> <feColorMatrix type="matrix" values="0 0 0 0 1 0 0 0 0 1 0 0 0 0 1 0 0 0 0.96 0"></feColorMatrix> <feBlend mode="normal" in2="BackgroundImageFix" result="effect1_dropShadow_77_88"></feBlend> <feBlend mode="normal" in="SourceGraphic" in2="effect1_dropShadow_77_88" result="shape"></feBlend> <feColorMatrix in="SourceAlpha" type="matrix" values="0 0 0 0 0 0 0 0 0 0 0 0 0 0 0 0 0 0 127 0" result="hardAlpha"></feColorMatrix> <feOffset dx="2" dy="2"></feOffset> <feGaussianBlur stdDeviation="10"></feGaussianBlur> <feComposite in2="hardAlpha" operator="arithmetic" k2="-1" k3="1"></feComposite> <feColorMatrix type="matrix" values="0 0 0 0 1 0 0 0 0 1 0 0 0 0 1 0 0 0 0.5 0"></feColorMatrix> <feBlend mode="normal" in2="shape" result="effect2_innerShadow_77_88"></feBlend> </filter> </defs> </svg> 