<?xml version="1.0" encoding="UTF-8"?> <svg xmlns="http://www.w3.org/2000/svg" width="80" height="80" viewBox="0 0 80 80" fill="none"> <path d="M79.5 40C79.5 61.8153 61.8153 79.5 40 79.5C18.1848 79.5 0.5 61.8153 0.5 40C0.5 18.1848 18.1848 0.5 40 0.5C61.8153 0.5 79.5 18.1848 79.5 40Z" fill="white" stroke="white"></path> <path d="M16.5625 29.4999H63.4375C64.3001 29.4999 65 28.7158 65 27.75C65 26.7839 64.3 26 63.4375 26H16.5625C15.6999 26 15 26.7841 15 27.75C15 28.7158 15.7001 29.4999 16.5625 29.4999Z" fill="#45434D"></path> <path d="M63.4375 38.25H16.5625C15.6999 38.25 15 39.0341 15 40C15 40.9659 15.7001 41.7499 16.5625 41.7499H63.4375C64.3001 41.7499 65 40.9659 65 40C65 39.0341 64.3001 38.25 63.4375 38.25Z" fill="#45434D"></path> <path d="M62.7273 50.5H17.2727C16.018 50.5 15 51.284 15 52.25C15 53.216 16.0182 53.9999 17.2727 53.9999H62.7273C63.982 53.9999 65 53.2159 65 52.25C65.0002 51.2839 63.982 50.5 62.7273 50.5Z" fill="#45434D"></path> </svg> 