<?xml version="1.0" encoding="UTF-8"?> <svg xmlns="http://www.w3.org/2000/svg" width="257" height="39" viewBox="0 0 257 39" fill="none"> <path d="M18.3169 7.6C19.1649 7.6 19.8729 7.876 20.4409 8.428C21.0089 8.972 21.2929 9.66 21.2929 10.492C21.2929 11.316 21.0089 12.004 20.4409 12.556C19.8729 13.1 19.1649 13.372 18.3169 13.372H16.9129V16H15.0889V7.6H18.3169ZM18.2449 11.692C18.6049 11.692 18.8929 11.58 19.1089 11.356C19.3329 11.132 19.4449 10.844 19.4449 10.492C19.4449 10.14 19.3329 9.852 19.1089 9.628C18.8929 9.396 18.6049 9.28 18.2449 9.28H16.9129V11.692H18.2449ZM27.6554 9.508H28.9634V15.988H27.5834L27.4394 15.412C26.8474 15.924 26.1474 16.18 25.3394 16.18C24.3634 16.18 23.5514 15.856 22.9034 15.208C22.2634 14.552 21.9434 13.732 21.9434 12.748C21.9434 11.772 22.2634 10.96 22.9034 10.312C23.5514 9.664 24.3634 9.34 25.3394 9.34C26.1634 9.34 26.8714 9.604 27.4634 10.132L27.6554 9.508ZM24.2114 14.02C24.5474 14.356 24.9674 14.524 25.4714 14.524C25.9834 14.524 26.4074 14.356 26.7434 14.02C27.0794 13.684 27.2474 13.26 27.2474 12.748C27.2474 12.236 27.0794 11.812 26.7434 11.476C26.4074 11.14 25.9874 10.972 25.4834 10.972C25.1474 10.972 24.8434 11.052 24.5714 11.212C24.3074 11.364 24.0994 11.576 23.9474 11.848C23.7954 12.112 23.7194 12.412 23.7194 12.748C23.7194 13.26 23.8834 13.684 24.2114 14.02ZM34.5606 12.52C35.1206 12.872 35.4006 13.392 35.4006 14.08C35.4006 14.696 35.1526 15.2 34.6566 15.592C34.1606 15.984 33.5246 16.18 32.7486 16.18C31.9486 16.18 31.3086 15.968 30.8286 15.544C30.3486 15.12 30.1046 14.552 30.0966 13.84H31.6806C31.6886 13.944 31.7086 14.044 31.7406 14.14C31.7806 14.228 31.8286 14.304 31.8846 14.368C31.9486 14.432 32.0206 14.488 32.1006 14.536C32.1886 14.584 32.2846 14.62 32.3886 14.644C32.5006 14.668 32.6206 14.68 32.7486 14.68C33.0366 14.68 33.2646 14.616 33.4326 14.488C33.6006 14.36 33.6846 14.188 33.6846 13.972C33.6846 13.828 33.6446 13.704 33.5646 13.6C33.4926 13.488 33.3846 13.404 33.2406 13.348C33.1046 13.292 32.9406 13.264 32.7486 13.264H32.0526V11.992H32.7486C33.0046 11.992 33.2006 11.94 33.3366 11.836C33.4726 11.724 33.5406 11.568 33.5406 11.368C33.5406 11.168 33.4646 11.012 33.3126 10.9C33.1686 10.78 32.9686 10.72 32.7126 10.72C32.4566 10.72 32.2486 10.784 32.0886 10.912C31.9366 11.04 31.8526 11.22 31.8366 11.452H30.2406C30.2566 10.828 30.4966 10.32 30.9606 9.928C31.4246 9.536 32.0206 9.34 32.7486 9.34C33.4686 9.34 34.0566 9.524 34.5126 9.892C34.9766 10.252 35.2086 10.716 35.2086 11.284C35.2086 11.78 34.9926 12.192 34.5606 12.52ZM40.212 9.34C41.188 9.34 41.996 9.664 42.636 10.312C43.284 10.96 43.608 11.776 43.608 12.76C43.608 13.744 43.284 14.564 42.636 15.22C41.988 15.868 41.18 16.192 40.212 16.192C39.548 16.192 38.952 16.012 38.424 15.652V18.34H36.672V9.52H37.836L38.136 10.108C38.712 9.596 39.404 9.34 40.212 9.34ZM38.796 14.032C39.132 14.368 39.552 14.536 40.056 14.536C40.568 14.536 40.992 14.368 41.328 14.032C41.664 13.696 41.832 13.272 41.832 12.76C41.832 12.424 41.756 12.12 41.604 11.848C41.452 11.576 41.24 11.364 40.968 11.212C40.704 11.06 40.404 10.984 40.068 10.984C39.732 10.984 39.428 11.06 39.156 11.212C38.884 11.364 38.672 11.576 38.52 11.848C38.376 12.12 38.304 12.424 38.304 12.76C38.304 13.272 38.468 13.696 38.796 14.032ZM50.1437 9.508H51.4517V15.988H50.0717L49.9277 15.412C49.3357 15.924 48.6357 16.18 47.8277 16.18C46.8517 16.18 46.0397 15.856 45.3917 15.208C44.7517 14.552 44.4317 13.732 44.4317 12.748C44.4317 11.772 44.7517 10.96 45.3917 10.312C46.0397 9.664 46.8517 9.34 47.8277 9.34C48.6517 9.34 49.3597 9.604 49.9517 10.132L50.1437 9.508ZM46.6997 14.02C47.0357 14.356 47.4557 14.524 47.9597 14.524C48.4717 14.524 48.8957 14.356 49.2317 14.02C49.5677 13.684 49.7357 13.26 49.7357 12.748C49.7357 12.236 49.5677 11.812 49.2317 11.476C48.8957 11.14 48.4757 10.972 47.9717 10.972C47.6357 10.972 47.3317 11.052 47.0597 11.212C46.7957 11.364 46.5877 11.576 46.4357 11.848C46.2837 12.112 46.2077 12.412 46.2077 12.748C46.2077 13.26 46.3717 13.684 46.6997 14.02ZM56.6049 9.784C57.5569 9.784 58.3209 10.072 58.8969 10.648C59.4729 11.224 59.7609 11.98 59.7609 12.916C59.7609 13.9 59.4489 14.692 58.8249 15.292C58.2009 15.884 57.3729 16.18 56.3409 16.18C55.2289 16.18 54.3689 15.84 53.7609 15.16C53.1529 14.472 52.8489 13.504 52.8489 12.256C52.8489 10.824 53.1569 9.696 53.7729 8.872C54.3969 8.04 55.3649 7.46 56.6769 7.132L58.8369 6.604V8.32L56.6889 8.848C55.6249 9.112 54.9969 9.62 54.8049 10.372C55.3409 9.98 55.9409 9.784 56.6049 9.784ZM55.1529 14.092C55.4649 14.404 55.8569 14.56 56.3289 14.56C56.8089 14.56 57.2049 14.404 57.5169 14.092C57.8289 13.78 57.9849 13.384 57.9849 12.904C57.9849 12.424 57.8289 12.028 57.5169 11.716C57.2049 11.396 56.8129 11.236 56.3409 11.236C56.0209 11.236 55.7329 11.308 55.4769 11.452C55.2289 11.596 55.0329 11.796 54.8889 12.052C54.7529 12.3 54.6849 12.584 54.6849 12.904C54.6849 13.384 54.8409 13.78 55.1529 14.092ZM64.1193 16.18C63.4553 16.18 62.8553 16.032 62.3193 15.736C61.7833 15.44 61.3633 15.032 61.0593 14.512C60.7633 13.984 60.6153 13.4 60.6153 12.76C60.6153 11.776 60.9473 10.96 61.6113 10.312C62.2753 9.664 63.1113 9.34 64.1193 9.34C65.1193 9.34 65.9513 9.664 66.6153 10.312C67.2793 10.96 67.6113 11.776 67.6113 12.76C67.6113 13.736 67.2753 14.552 66.6033 15.208C65.9393 15.856 65.1113 16.18 64.1193 16.18ZM64.1193 14.536C64.6233 14.536 65.0353 14.372 65.3553 14.044C65.6753 13.708 65.8353 13.28 65.8353 12.76C65.8353 12.24 65.6753 11.816 65.3553 11.488C65.0353 11.152 64.6193 10.984 64.1073 10.984C63.6033 10.984 63.1913 11.152 62.8713 11.488C62.5513 11.816 62.3913 12.24 62.3913 12.76C62.3913 13.016 62.4313 13.256 62.5113 13.48C62.5993 13.704 62.7193 13.892 62.8713 14.044C63.0233 14.196 63.2033 14.316 63.4113 14.404C63.6273 14.492 63.8633 14.536 64.1193 14.536ZM74.0505 9.52V11.092H71.9385V16H70.2225V11.092H68.1105V9.52H74.0505ZM81.0615 16H78.9495L76.8615 12.904V16H75.1095V9.52H76.8615V12.4L78.8295 9.52H80.8215L78.6255 12.616L81.0615 16ZM86.8468 9.508H88.1548V15.988H86.7748L86.6308 15.412C86.0388 15.924 85.3388 16.18 84.5308 16.18C83.5548 16.18 82.7428 15.856 82.0948 15.208C81.4548 14.552 81.1348 13.732 81.1348 12.748C81.1348 11.772 81.4548 10.96 82.0948 10.312C82.7428 9.664 83.5548 9.34 84.5308 9.34C85.3548 9.34 86.0628 9.604 86.6548 10.132L86.8468 9.508ZM83.4028 14.02C83.7388 14.356 84.1588 14.524 84.6628 14.524C85.1748 14.524 85.5988 14.356 85.9348 14.02C86.2708 13.684 86.4388 13.26 86.4388 12.748C86.4388 12.236 86.2708 11.812 85.9348 11.476C85.5988 11.14 85.1788 10.972 84.6748 10.972C84.3388 10.972 84.0348 11.052 83.7628 11.212C83.4988 11.364 83.2908 11.576 83.1388 11.848C82.9868 12.112 82.9108 12.412 82.9108 12.748C82.9108 13.26 83.0748 13.684 83.4028 14.02ZM55.1645 31.18C54.5245 31.18 53.9405 31.032 53.4125 30.736C52.8925 30.432 52.4805 30.016 52.1765 29.488C51.8805 28.96 51.7325 28.376 51.7325 27.736C51.7325 26.768 52.0605 25.96 52.7165 25.312C53.3725 24.664 54.1925 24.34 55.1765 24.34C56.0165 24.34 56.7365 24.584 57.3365 25.072C57.9365 25.552 58.3165 26.192 58.4765 26.992H56.7365C56.5925 26.68 56.3805 26.436 56.1005 26.26C55.8285 26.076 55.5165 25.984 55.1645 25.984C54.6925 25.984 54.2965 26.152 53.9765 26.488C53.6645 26.824 53.5085 27.244 53.5085 27.748C53.5085 28.252 53.6685 28.676 53.9885 29.02C54.3085 29.364 54.7005 29.536 55.1645 29.536C55.5165 29.536 55.8285 29.444 56.1005 29.26C56.3725 29.068 56.5845 28.796 56.7365 28.444H58.5005C58.3405 29.268 57.9565 29.932 57.3485 30.436C56.7405 30.932 56.0125 31.18 55.1645 31.18ZM64.9445 24.508H66.2525V30.988H64.8725L64.7285 30.412C64.1365 30.924 63.4365 31.18 62.6285 31.18C61.6525 31.18 60.8405 30.856 60.1925 30.208C59.5525 29.552 59.2325 28.732 59.2325 27.748C59.2325 26.772 59.5525 25.96 60.1925 25.312C60.8405 24.664 61.6525 24.34 62.6285 24.34C63.4525 24.34 64.1605 24.604 64.7525 25.132L64.9445 24.508ZM61.5005 29.02C61.8365 29.356 62.2565 29.524 62.7605 29.524C63.2725 29.524 63.6965 29.356 64.0325 29.02C64.3685 28.684 64.5365 28.26 64.5365 27.748C64.5365 27.236 64.3685 26.812 64.0325 26.476C63.6965 26.14 63.2765 25.972 62.7725 25.972C62.4365 25.972 62.1325 26.052 61.8605 26.212C61.5965 26.364 61.3885 26.576 61.2365 26.848C61.0845 27.112 61.0085 27.412 61.0085 27.748C61.0085 28.26 61.1725 28.684 61.5005 29.02ZM72.5457 22.3V23.596H69.2457V22.3H72.5457ZM72.6537 24.52H73.6377V31H71.9457V27.568L68.9337 31H67.9377V24.52H69.6297V27.916L72.6537 24.52ZM80.6365 24.52V26.092H78.5245V31H76.8085V26.092H74.6965V24.52H80.6365ZM86.8468 24.508H88.1548V30.988H86.7748L86.6308 30.412C86.0388 30.924 85.3388 31.18 84.5308 31.18C83.5548 31.18 82.7428 30.856 82.0948 30.208C81.4548 29.552 81.1348 28.732 81.1348 27.748C81.1348 26.772 81.4548 25.96 82.0948 25.312C82.7428 24.664 83.5548 24.34 84.5308 24.34C85.3548 24.34 86.0628 24.604 86.6548 25.132L86.8468 24.508ZM83.4028 29.02C83.7388 29.356 84.1588 29.524 84.6628 29.524C85.1748 29.524 85.5988 29.356 85.9348 29.02C86.2708 28.684 86.4388 28.26 86.4388 27.748C86.4388 27.236 86.2708 26.812 85.9348 26.476C85.5988 26.14 85.1788 25.972 84.6748 25.972C84.3388 25.972 84.0348 26.052 83.7628 26.212C83.4988 26.364 83.2908 26.576 83.1388 26.848C82.9868 27.112 82.9108 27.412 82.9108 27.748C82.9108 28.26 83.0748 28.684 83.4028 29.02Z" fill="white"></path> <path d="M147.438 9.29334C148.176 9.28863 148.908 9.4185 149.599 9.67658C150.243 9.91216 150.837 10.2644 151.352 10.7157C151.843 11.1519 152.241 11.6826 152.521 12.2762C152.807 12.8768 152.954 13.5341 152.95 14.1993V19.1043H151.848V14.1993C151.85 13.6718 151.73 13.1511 151.496 12.6783C151.264 12.2053 150.942 11.7822 150.548 11.4325C150.135 11.0699 149.661 10.7841 149.148 10.5888C148.047 10.1704 146.83 10.1704 145.729 10.5888C145.216 10.784 144.742 11.0698 144.329 11.4325C143.935 11.7819 143.613 12.2051 143.381 12.6783C143.146 13.1509 143.025 13.6717 143.028 14.1993V19.1043H141.924V14.1993C141.926 13.6717 141.805 13.1509 141.571 12.6783C141.339 12.2051 141.017 11.7819 140.623 11.4325C140.21 11.0698 139.736 10.784 139.223 10.5888C138.122 10.1704 136.905 10.1704 135.804 10.5888C135.29 10.7837 134.814 11.0694 134.401 11.4325C134.009 11.7827 133.688 12.2058 133.458 12.6783C133.224 13.1511 133.103 13.6718 133.105 14.1993V19.1043H132V14.1993C131.997 13.5328 132.148 12.8747 132.441 12.2762C132.731 11.6798 133.139 11.1489 133.641 10.7157C134.162 10.2704 134.755 9.91875 135.396 9.67658C136.072 9.41863 136.79 9.28867 137.513 9.29334C138.046 9.29167 138.576 9.36116 139.091 9.49996C140.051 9.75498 140.929 10.2552 141.638 10.9515C141.967 11.2734 142.249 11.64 142.476 12.0404C142.704 11.638 142.99 11.2711 143.324 10.9515C143.676 10.6133 144.069 10.3201 144.494 10.0787C144.934 9.82716 145.405 9.63269 145.894 9.49996C146.397 9.36162 146.916 9.29211 147.438 9.29334Z" fill="white"></path> <path d="M167.22 14.6912V14.1999C167.224 13.5352 167.078 12.8783 166.792 12.2785C166.512 11.6851 166.114 11.1546 165.624 10.7189C165.108 10.2662 164.513 9.91298 163.869 9.67721C162.469 9.16847 160.935 9.16847 159.535 9.67721C158.896 9.91487 158.306 10.268 157.794 10.7189C157.302 11.153 156.904 11.6835 156.625 12.2776C156.341 12.8805 156.194 13.5384 156.194 14.2046C156.194 14.8708 156.341 15.5287 156.625 16.1316C156.906 16.722 157.303 17.2498 157.793 17.6834C158.304 18.1335 158.894 18.4858 159.533 18.7226C160.228 18.9822 160.965 19.1121 161.707 19.1058C162.298 19.1071 162.885 19.0174 163.448 18.84C163.99 18.6732 164.507 18.4325 164.983 18.125C165.439 17.8282 165.848 17.4639 166.195 17.0447C166.285 16.9349 166.373 16.82 166.452 16.7017H165.109C164.843 16.9938 164.536 17.2467 164.199 17.4528C163.477 17.8998 162.647 18.1227 161.707 18.1215C161.17 18.1259 160.637 18.0359 160.131 17.8557C159.651 17.6873 159.201 17.4458 158.796 17.1398C158.404 16.8444 158.071 16.478 157.815 16.0595C157.557 15.6393 157.383 15.1737 157.3 14.6877L167.22 14.6912ZM157.815 12.3471C158.069 11.9245 158.402 11.5548 158.796 11.2582C159.202 10.953 159.652 10.711 160.131 10.5406C161.148 10.1897 162.254 10.1897 163.272 10.5406C163.755 10.7095 164.209 10.9515 164.618 11.2582C165.012 11.5548 165.345 11.9245 165.6 12.3471C165.854 12.7655 166.028 13.2275 166.114 13.7095H157.293C157.381 13.2271 157.558 12.7652 157.815 12.3471Z" fill="white"></path> <path d="M175.976 9.29347C176.699 9.28856 177.417 9.41853 178.093 9.67672C178.733 9.91885 179.326 10.2705 179.846 10.7159C180.348 11.1488 180.757 11.6798 181.046 12.2763C181.34 12.8747 181.491 13.5329 181.488 14.1994H180.387C180.389 13.6719 180.268 13.1511 180.034 12.6784C179.802 12.2053 179.48 11.7821 179.085 11.4326C178.673 11.0701 178.199 10.7844 177.685 10.589C176.584 10.1706 175.368 10.1706 174.267 10.589C173.753 10.784 173.279 11.0697 172.866 11.4326C172.472 11.7821 172.15 12.2053 171.918 12.6784C171.684 13.1512 171.563 13.6719 171.565 14.1994V19.1045H170.462V14.1994C170.458 13.5343 170.605 12.8769 170.891 12.2763C171.171 11.6829 171.569 11.1522 172.059 10.7159C172.572 10.2663 173.162 9.91416 173.801 9.67672C174.497 9.41651 175.234 9.28659 175.976 9.29347Z" fill="white"></path> <path d="M193.634 16.7029H194.969C194.96 16.7166 194.95 16.7278 194.942 16.7415C194.605 17.2167 194.197 17.6367 193.731 17.9864C193.246 18.3468 192.705 18.6254 192.13 18.8112C190.805 19.2307 189.378 19.2006 188.072 18.7255C187.434 18.4867 186.844 18.1337 186.332 17.6837C185.841 17.2505 185.442 16.7238 185.157 16.1345C184.874 15.5309 184.727 14.8722 184.727 14.2054C184.727 13.5385 184.874 12.8798 185.157 12.2763C185.44 11.6828 185.839 11.1522 186.331 10.7158C186.843 10.2657 187.433 9.91343 188.072 9.67669C188.767 9.41693 189.504 9.28703 190.247 9.29344C190.887 9.28982 191.524 9.3897 192.133 9.58923C192.707 9.77331 193.247 10.0511 193.731 10.4115C194.197 10.7621 194.605 11.1829 194.942 11.6589C194.964 11.689 194.983 11.719 195.005 11.7498H193.686C193.472 11.5127 193.231 11.3009 192.968 11.1188C192.171 10.5606 191.219 10.2654 190.246 10.2743C189.103 10.2713 187.997 10.6825 187.134 11.4317C186.741 11.7826 186.419 12.2058 186.186 12.6784C185.955 13.1517 185.835 13.6717 185.835 14.1985C185.835 14.7254 185.955 15.2453 186.186 15.7186C186.418 16.192 186.74 16.6157 187.134 16.9661C187.547 17.3288 188.022 17.6148 188.535 17.8106C189.559 18.1938 190.681 18.224 191.723 17.8964C192.166 17.7521 192.585 17.5435 192.968 17.2774C193.211 17.1112 193.434 16.9186 193.634 16.7029Z" fill="white"></path> <path d="M203.712 19.1594C202.971 19.1664 202.235 19.0368 201.54 18.777C200.901 18.5398 200.31 18.1873 199.797 17.737C199.308 17.3031 198.911 16.7761 198.629 16.1868C198.341 15.5836 198.194 14.9227 198.2 14.2543V9.34839H199.304V14.2543C199.302 14.7815 199.423 15.302 199.657 15.7744C199.888 16.248 200.21 16.6716 200.605 17.0211C201.017 17.384 201.492 17.6698 202.006 17.8647C203.107 18.2831 204.323 18.2831 205.424 17.8647C205.938 17.6695 206.412 17.3838 206.824 17.0211C207.219 16.6716 207.541 16.248 207.773 15.7744C208.007 15.302 208.128 14.7816 208.126 14.2543V9.34839H209.228V14.2543C209.234 14.9241 209.082 15.5858 208.787 16.1868C208.495 16.7791 208.087 17.3064 207.586 17.737C207.067 18.1826 206.473 18.5345 205.833 18.777C205.156 19.0352 204.437 19.1648 203.712 19.1594Z" fill="white"></path> <path d="M217.985 9.2627C218.709 9.25793 219.427 9.38789 220.103 9.64595C220.743 9.88848 221.336 10.2401 221.856 10.6851C222.358 11.1182 222.767 11.6492 223.057 12.2455C223.35 12.844 223.501 13.5021 223.498 14.1686H222.396C222.398 13.6411 222.277 13.1204 222.043 12.6476C221.811 12.1745 221.489 11.7513 221.095 11.4019C220.682 11.0391 220.208 10.7534 219.695 10.5582C218.594 10.1398 217.377 10.1398 216.276 10.5582C215.763 10.7532 215.288 11.039 214.875 11.4019C214.481 11.7513 214.159 12.1745 213.927 12.6476C213.693 13.1204 213.573 13.6412 213.575 14.1686V19.0737H212.472V14.1686C212.469 13.5035 212.615 12.8461 212.901 12.2455C213.182 11.6522 213.579 11.1215 214.07 10.6851C214.582 10.2355 215.173 9.88339 215.812 9.64595C216.507 9.38584 217.243 9.25593 217.985 9.2627Z" fill="white"></path> <path d="M226.607 8.51014V7.5293H227.71V8.51014H226.607ZM226.607 19.1056V9.29464H227.71V19.1056H226.607Z" fill="white"></path> <path d="M236.464 19.1042C235.723 19.1113 234.986 18.9817 234.292 18.7218C233.652 18.4848 233.062 18.1323 232.55 17.6818C232.061 17.2493 231.663 16.7231 231.381 16.1342C231.093 15.5312 230.946 14.8701 230.952 14.2017V9.29321H232.056V14.1991C232.054 14.7267 232.175 15.2475 232.409 15.7201C232.641 16.1933 232.963 16.6165 233.357 16.9659C233.77 17.3286 234.244 17.6144 234.757 17.8096C235.858 18.228 237.075 18.228 238.176 17.8096C238.689 17.6142 239.164 17.3284 239.577 16.9659C239.971 16.616 240.293 16.1929 240.525 15.7201C240.759 15.2473 240.879 14.7266 240.877 14.1991V9.29321H241.98V14.1991C241.986 14.8688 241.835 15.5306 241.539 16.1317C241.248 16.724 240.839 17.2513 240.339 17.6818C239.819 18.1276 239.226 18.4795 238.586 18.7218C237.908 18.98 237.189 19.1097 236.464 19.1042Z" fill="white"></path> <path d="M246.896 10.7329C246.713 10.8748 246.565 11.0581 246.465 11.2679C246.365 11.4776 246.317 11.708 246.323 11.9401C246.32 12.1789 246.37 12.4153 246.469 12.6325C246.568 12.8497 246.714 13.0422 246.896 13.1962C247.285 13.5389 247.79 13.7213 248.308 13.7063H253.27C253.665 13.7034 254.058 13.7731 254.428 13.9121C254.776 14.0431 255.097 14.2369 255.376 14.484C255.643 14.7197 255.861 15.0066 256.016 15.3276C256.17 15.6485 256.249 16.0004 256.247 16.3565C256.248 16.7193 256.169 17.0779 256.016 17.4068C255.863 17.7371 255.645 18.0334 255.376 18.2779C255.097 18.5316 254.776 18.7347 254.428 18.878C254.061 19.03 253.667 19.1066 253.27 19.1035H245.22V18.1235H253.27C253.757 18.1291 254.227 17.9463 254.582 17.6134C254.762 17.4578 254.905 17.2647 255.002 17.0477C255.1 16.8307 255.148 16.5951 255.144 16.3573C255.151 16.1264 255.103 15.8971 255.006 15.6877C254.908 15.4783 254.763 15.2945 254.582 15.151C254.214 14.8456 253.748 14.682 253.27 14.6897H248.308C247.889 14.6937 247.473 14.6171 247.083 14.4642C246.724 14.3231 246.392 14.1199 246.102 13.8641C245.827 13.6211 245.606 13.3236 245.452 12.9904C245.298 12.6618 245.219 12.3035 245.22 11.941C245.218 11.5849 245.298 11.2331 245.452 10.9121C245.608 10.5892 245.83 10.302 246.102 10.0685C246.392 9.82058 246.724 9.62791 247.083 9.50002C247.476 9.35918 247.891 9.28922 248.308 9.29339H256.247V10.2751H248.308C247.749 10.2751 247.278 10.4277 246.896 10.7329Z" fill="white"></path> <path d="M133.813 33.0071C135.726 33.0071 136.867 32.2518 136.867 29.7427C136.867 27.3679 135.709 26.6966 133.813 26.6966H132V33.0071H133.813ZM132.789 27.4518H133.813C135.407 27.4518 136.062 28.0476 136.062 29.7427C136.062 31.6057 135.415 32.2518 133.813 32.2518H132.789V27.4518Z" fill="white"></path> <path d="M138.554 27.6364C138.848 27.6364 139.083 27.4015 139.083 27.1078C139.083 26.8141 138.848 26.5791 138.554 26.5791C138.26 26.5791 138.025 26.8141 138.025 27.1078C138.025 27.4015 138.26 27.6364 138.554 27.6364ZM138.94 33.0071V28.7777H138.176V33.0071H138.94Z" fill="white"></path> <path d="M142.43 32.2938C141.448 32.2267 141.087 32.0001 141.087 31.7651C141.087 31.6896 141.095 31.6393 141.146 31.5721C141.381 31.6476 141.658 31.6896 141.977 31.6896C143.135 31.6896 143.789 31.1441 143.789 30.1791C143.789 29.9441 143.756 29.7427 143.68 29.5581C143.873 29.4155 144.066 29.298 144.377 29.1302C144.268 28.9455 144.175 28.8029 144.024 28.6015C143.772 28.7441 143.563 28.912 143.361 29.105C143.051 28.8281 142.589 28.677 141.977 28.677C140.81 28.677 140.156 29.2141 140.156 30.1791C140.156 30.6658 140.323 31.0518 140.642 31.312C140.458 31.463 140.357 31.6141 140.357 31.9246C140.357 32.3693 140.626 32.6462 141.028 32.8141C140.558 33.091 139.971 33.1917 139.971 34.0309C139.971 34.6267 140.575 35.34 141.951 35.34C143.479 35.34 144.175 34.677 144.175 33.7791C144.175 32.8309 143.386 32.3609 142.43 32.2938ZM141.977 29.3148C142.723 29.3148 143.084 29.6001 143.084 30.1791C143.084 30.7665 142.723 31.0518 141.977 31.0518C141.23 31.0518 140.869 30.7665 140.869 30.1791C140.869 29.6001 141.23 29.3148 141.977 29.3148ZM142.044 34.6267C141.356 34.6267 140.751 34.4505 140.751 33.9553C140.751 33.5442 141.037 33.3428 141.607 32.9735C141.775 32.9987 141.943 33.0239 142.128 33.0323C143.076 33.0994 143.395 33.326 143.395 33.8043C143.395 34.3581 142.732 34.6267 142.044 34.6267Z" fill="white"></path> <path d="M145.802 27.6364C146.096 27.6364 146.331 27.4015 146.331 27.1078C146.331 26.8141 146.096 26.5791 145.802 26.5791C145.508 26.5791 145.273 26.8141 145.273 27.1078C145.273 27.4015 145.508 27.6364 145.802 27.6364ZM146.188 33.0071V28.7777H145.424V33.0071H146.188Z" fill="white"></path> <path d="M149.759 32.2518C149.146 32.277 148.844 32.2602 148.844 31.5889V29.4658H150.052L150.044 28.7777H148.844V27.2756H148.08V28.7777H147.25V29.4658H148.08V31.5302C148.08 33.0071 148.575 33.0071 149.725 33.0071H150.027L150.002 32.2434L149.759 32.2518Z" fill="white"></path> <path d="M152.698 33.1246C153.789 33.1246 154.159 32.7721 154.343 32.5455V33.0071H155.107V30.4309C155.107 29.0462 154.419 28.6602 153.277 28.6099C151.767 28.6099 151.213 29.3064 151.188 29.9525H151.943C152.052 29.5833 152.405 29.3735 153.135 29.3735C154.049 29.3735 154.335 29.6336 154.335 30.3302L152.698 30.4309C151.675 30.498 150.995 30.6994 150.995 31.6728C150.995 32.3106 151.473 33.1246 152.698 33.1246ZM152.992 32.3609C151.884 32.3609 151.767 31.9078 151.767 31.6728C151.767 31.27 151.977 31.1609 152.782 31.1022C152.933 31.0938 153.747 31.0434 154.326 31.0183V31.4546C154.326 32.0337 153.705 32.3609 152.992 32.3609Z" fill="white"></path> <path d="M157.195 33.0071V26.4448H156.432V33.0071H157.195Z" fill="white"></path> <path d="M161.761 30.8253V30.112H158.908V30.8253H161.761Z" fill="white"></path> <path d="M168.434 33.0071L166.118 26.6966H165.329L163.013 33.0071H163.844L164.423 31.3875H167.016L167.595 33.0071H168.434ZM165.724 27.7707L166.764 30.691H164.675L165.724 27.7707Z" fill="white"></path> <path d="M170.169 33.0071V29.449H172.72V28.7777H169.406V33.0071H170.169Z" fill="white"></path> <path d="M175.571 33.1246C176.418 33.1246 177.257 32.8476 177.618 31.7987H176.863C176.578 32.2686 176.04 32.3693 175.571 32.3693C174.589 32.3693 174.144 31.8155 174.119 31.1022H177.761C177.761 29.0378 176.485 28.6099 175.571 28.6099C173.884 28.6099 173.338 29.8602 173.338 30.8672C173.338 32.1427 173.951 33.1246 175.571 33.1246ZM174.136 30.4141C174.261 29.7763 174.757 29.3567 175.545 29.3567C176.024 29.3567 176.821 29.5497 176.964 30.4141H174.136Z" fill="white"></path> <path d="M179.646 33.0071V31.1358H182.139V33.0071H182.902V28.7777H182.139V30.4225H179.646V28.7777H178.883V33.0071H179.646Z" fill="white"></path> <path d="M185.372 29.449V33.0071H186.136V29.449H187.554V28.7777H183.946V29.449H185.372Z" fill="white"></path> <path d="M190.472 33.1246C191.235 33.1246 191.756 32.8812 192.116 32.512L191.571 31.9749C191.311 32.2267 190.942 32.3693 190.472 32.3693C189.557 32.3693 188.978 31.8155 188.978 30.8672C188.978 29.919 189.54 29.3651 190.472 29.3651C190.942 29.3651 191.319 29.4994 191.571 29.7595L192.116 29.2225C191.756 28.8616 191.227 28.6099 190.472 28.6099C188.785 28.6099 188.181 29.8602 188.181 30.8672C188.181 31.8742 188.785 33.1246 190.472 33.1246Z" fill="white"></path> <path d="M194.538 29.449V33.0071H195.302V29.449H196.72V28.7777H193.111V29.449H194.538Z" fill="white"></path> <path d="M199.928 33.0071C200.901 33.0071 201.388 32.4952 201.388 31.7567C201.388 31.0686 200.868 30.8085 200.591 30.8085C200.725 30.8085 201.287 30.6323 201.287 29.9274C201.287 29.2225 200.809 28.7777 199.777 28.7777H197.763V33.0071H199.928ZM198.527 29.4071H199.802C200.238 29.4071 200.515 29.4994 200.515 29.9609C200.515 30.3805 200.339 30.4896 199.811 30.4896H198.527V29.4071ZM198.527 31.1609H199.827C200.331 31.1609 200.608 31.2532 200.608 31.7567C200.608 32.1847 200.322 32.3609 199.844 32.3609H198.527V31.1609Z" fill="white"></path> <path d="M204.625 33.1246C206.32 33.1246 206.916 31.8742 206.916 30.8672C206.916 29.8602 206.32 28.6099 204.625 28.6099C202.938 28.6099 202.343 29.8602 202.343 30.8672C202.343 31.8742 202.938 33.1246 204.625 33.1246ZM204.625 32.3693C203.71 32.3693 203.14 31.8155 203.14 30.8672C203.14 29.919 203.694 29.3651 204.625 29.3651C205.557 29.3651 206.119 29.919 206.119 30.8672C206.119 31.8155 205.54 32.3693 204.625 32.3693Z" fill="white"></path> <path d="M113.62 4.26124L106.913 4.91384L105.252 3.25358L112.91 2.72363L113.62 4.26124Z" fill="white"></path> <path d="M114.281 5.69773L108.428 6.42906L107.378 5.37901L113.84 4.73853L114.191 5.4956L114.281 5.69773Z" fill="white"></path> <path d="M108.153 15.6382C108.142 20.1085 108.132 24.5792 108.122 29.0505L102.208 38.9999L114.779 31.1726L113.965 24.7208L118.075 19.1457L122.685 19.5811L125.907 10.8376L114.226 11.9929L108.153 15.6382Z" fill="white"></path> <path d="M113.567 9.82854L113.495 10.7158C113.483 10.8619 113.472 11.0081 113.459 11.1549L117.538 10.8127L117.689 10.7976L118.288 10.7476C121.076 10.4983 123.828 10.2288 126.544 9.93907L125.731 9.23802L121.42 5.52837L117.394 5.20435L119.094 9.24256L113.567 9.82854Z" fill="white"></path> <path d="M114.954 7.15587C113.278 7.41378 111.602 7.67169 109.927 7.9296L108.898 6.90074C110.766 6.66201 112.633 6.42227 114.501 6.18152L114.954 7.15587Z" fill="white"></path> <path d="M115.606 8.57223C114.212 8.85638 112.816 9.13953 111.42 9.42166L111.086 9.0878L110.424 8.42006C112.001 8.13994 113.577 7.86235 115.152 7.58728L115.606 8.57223Z" fill="white"></path> <path d="M118.209 8.80171L116.599 8.96902C115.492 6.63977 114.385 4.31001 113.277 1.97974L107.692 2.27273C106.61 2.33026 105.527 2.38704 104.443 2.44307L102 0L114.729 0.0408818C115.89 2.96116 117.05 5.88143 118.209 8.80171Z" fill="white"></path> </svg> 