<?xml version="1.0" encoding="UTF-8"?> <svg xmlns="http://www.w3.org/2000/svg" width="100" height="100" viewBox="0 0 100 100" fill="none"> <g clip-path="url(#clip0_1713_27)"> <path d="M3.09922 85.0974L26.786 64.9515C29.2346 62.7478 31.8534 61.7361 33.969 61.8337C28.3774 55.2843 24.9999 46.787 24.9999 37.5001C24.9999 16.7893 41.7891 0 62.4999 0C83.2105 0 100 16.7893 100 37.5001C100 58.2109 83.2107 75.0001 62.4999 75.0001C53.213 75.0001 44.7157 71.6226 38.1663 66.031C38.2639 68.1464 37.2522 70.765 35.0485 73.2136L14.9028 96.9006C11.4531 100.733 5.81837 101.056 2.38145 97.6189C-1.05606 94.1816 -0.733405 88.5468 3.09922 85.0974ZM62.4999 62.5001C76.307 62.5001 87.5 51.3069 87.5 37.5001C87.5 23.693 76.307 12.5 62.4999 12.5C48.6931 12.5 37.4999 23.693 37.4999 37.5001C37.4999 51.3069 48.6927 62.5001 62.4999 62.5001Z" fill="#F2F2F2"></path> </g> <defs> <clipPath id="clip0_1713_27"> <rect width="100" height="100" fill="white" transform="matrix(-1 0 0 1 100 0)"></rect> </clipPath> </defs> </svg> 