<?xml version="1.0" encoding="UTF-8"?> <svg xmlns="http://www.w3.org/2000/svg" width="1342" height="658" viewBox="0 0 1342 658" fill="none"> <mask id="mask0_143_120" style="mask-type:alpha" maskUnits="userSpaceOnUse" x="0" y="0" width="1342" height="658"> <path d="M1084.53 39.9666C1082.52 39.9666 1080.22 40.2528 1077.97 40.3048C1071.85 40.0832 1065.71 40.6439 1060.05 41.944C1057.92 42.3974 1055.66 42.6098 1053.39 42.5684C1045.04 42.8546 1036.64 43.0887 1028.95 43.3229L1021.53 45.1181L996.766 45.8726L988.979 47.5117C972.279 48.1882 956.142 47.1475 940.521 50.1135C938.275 50.3915 935.963 50.4705 933.672 50.3476C899.272 50.3476 459.613 50.2609 425.212 50.0875C418.552 50.3708 411.863 49.8103 405.651 48.4484L399.506 49.8013C393.689 47.6158 386.09 47.7459 378.444 47.6678C363.902 47.4857 349.407 47.0694 335.052 46.7312C329.555 45.1222 323.443 44.2659 317.227 44.2335H298.885C294.189 44.0638 289.614 43.3362 285.469 42.1001L242.359 41.0854L234.478 39.3162L206.333 38.4316L197.748 36.4282C190.9 36.2201 184.004 36.1941 177.202 35.7257C171.995 35.3355 166.929 34.1387 161.722 33.6964C155.649 33.4343 149.668 32.7166 143.943 31.5629C138.502 30.236 132.169 30.236 126.258 29.1433C117.627 27.5822 109.043 25.8391 100.458 24.226C91.1254 22.4934 81.9652 20.4872 73.016 18.2159H49.9366L34.6441 22.2486C32.1579 23.7316 28.968 25.5529 25.9189 27.4521C24.8014 28.2816 23.7829 29.1507 22.8698 30.0539C24.1364 39.2641 20.9934 49.0468 26.9509 58.6733C27.6508 60.3346 27.9037 62.0443 27.7015 63.7467C28.0768 70.9536 28.3582 78.1605 28.6866 84.9771L31.8764 89.348C32.111 96.1647 32.3455 103.372 32.6739 110.604C32.2325 113.15 32.5655 115.718 33.659 118.202C37.5525 123.613 36.5205 129.103 36.8488 134.567C37.1303 139.224 37.3179 143.907 37.1303 148.564C37.2033 152.056 38.5267 155.505 41.0238 158.711V161.053C42.5249 173.307 39.5227 185.665 45.2925 197.841C45.6491 199.106 45.7435 200.389 45.574 201.666C45.574 205.933 45.9962 210.174 46.09 214.441C46.09 224.223 46.4184 234.006 46.5591 243.372L42.0718 469.134C40.8522 473.193 37.8031 477.147 39.7264 481.102L42.6817 485.213V499.939C41.978 502.384 38.4129 503.92 39.6795 506.313L42.6348 510.346V586.213C41.0531 589.066 39.9383 591.992 39.3042 594.955C39.3042 598.129 34.238 600.159 34.6133 603.333L38.0376 606.507L40.4769 608.823L58.3964 617.669C62.8873 619.122 67.5957 620.358 72.4692 621.363C77.723 622.222 81.8511 624.615 87.574 624.641C93.297 624.667 97.8003 626.463 103.383 627.503C124.257 628.31 145.601 629.221 167.039 629.949C186.131 630.6 205.223 631.016 224.362 631.588C230.461 631.77 236.606 632.135 242.704 632.317C248.802 632.499 254.947 632.135 260.999 632.629C267.05 633.123 272.82 631.354 278.824 631.25C286.424 631.12 294.07 631.25 301.857 631.25L309.175 629.611L355.24 630.6C360.963 629.533 365.747 627.998 371.33 629.273C374.191 629.871 377.006 630.548 379.023 630.99C386.481 629.741 392.861 628.388 399.382 627.581C405.151 626.775 411.531 627.347 417.02 625.656C418.415 625.337 419.922 625.195 421.429 625.24C426.12 625.24 430.529 625.24 435.08 625.058L446.666 620.609H465.946C469.673 619.771 878.797 619.135 882.745 618.709C887.29 618.718 891.801 618.277 896.067 617.409C901.837 618.996 907.607 620.01 913.565 618.137C917.042 617.289 920.857 616.958 924.635 617.174C927.639 617.32 930.665 617.144 933.548 616.654C943.446 614.052 954.986 616.94 964.79 614.26C965.259 614.13 966.197 614.443 966.854 614.599C973.197 616.145 980.346 616.34 986.931 615.145C989.323 614.729 992.607 615.821 995.656 616.264L1004.62 614.365L1058.66 616.004L1065.41 614.703L1073.71 616.16L1081.97 614.521L1132.58 615.483L1139.15 614.182C1147.83 616.576 1156.98 615.952 1165.7 616.29L1173.16 614.573C1179.17 614.573 1186.01 614.781 1192.86 614.729C1196.63 614.966 1200.45 614.762 1204.07 614.13C1209.8 612.595 1215.94 613.064 1222.23 612.491L1233.21 607.834C1240.05 608.511 1245.82 606.013 1252.34 605.05C1255.39 604.533 1258.18 603.621 1260.47 602.391C1262.76 601.161 1264.49 599.647 1265.53 597.973L1266.23 586.5L1269.47 581.504L1267.45 577.133C1270.31 574.375 1269.14 570.915 1270.83 568.027C1273.44 564.278 1274.88 560.31 1275.1 556.293C1275.37 554.981 1276 553.7 1276.97 552.494C1278.61 549.554 1280.02 546.536 1282.04 543.674C1283.6 541.601 1284.32 539.363 1284.15 537.118C1284.57 533.474 1283.47 529.825 1280.96 526.451C1279.74 520.154 1275.19 514.197 1274.49 507.796C1273.64 504.66 1272.37 501.564 1270.69 498.534C1269.84 476.315 1277.52 230.78 1278.55 207.104L1281.79 201.9L1283.15 178.849C1285.87 176.65 1287.22 174.019 1286.99 171.356C1287.54 167.824 1288.77 164.335 1290.65 160.949C1291.56 157.361 1292.08 153.747 1292.2 150.125C1296.33 145.624 1295.67 140.499 1297.27 135.659C1297.96 134.345 1298.89 133.073 1300.04 131.861L1301.16 119.685L1304.07 116.042C1306.65 109.33 1303.46 102.253 1308.76 95.8784C1309.6 79.9817 1310.12 64.0849 1309.7 48.1882C1310.03 45.4665 1309.55 42.7334 1308.29 40.0967C1305.2 35.4656 1304.44 30.3661 1299.89 26.0732C1298.11 24.1042 1295.12 22.5539 1291.45 21.7023C1289.29 21.26 1287.28 20.6095 1284.65 19.907L1267.86 24.356C1262.7 24.9024 1256.32 24.5382 1251.06 26.9578L1225.64 27.8424C1221.84 29.2421 1217.34 29.943 1212.78 29.8458C1206.63 29.8644 1200.57 30.6937 1195.1 32.2654C1188.25 32.4475 1181.35 32.5776 1174.51 32.8118C1171.47 32.6599 1168.42 32.8728 1165.55 33.4362C1159.78 35.2834 1153.63 34.7371 1147.63 35.0233C1140.03 35.3875 1132.38 35.4916 1125.16 35.6997L1118.45 37.3648L1092.79 38.2755L1084.53 39.9666Z" fill="#45434D"></path> </mask> <g mask="url(#mask0_143_120)"> <path d="M998 40C998 17.9086 1015.91 0 1038 0H1107.5H1177C1199.09 0 1217 17.9086 1217 40V227C1217 249.091 1199.09 267 1177 267H1038C1015.91 267 998 249.091 998 227V40Z" fill="white"></path> </g> </svg> 